<?xml version="1.0" encoding="utf-8"?>
<!-- Generator: Adobe Illustrator 23.0.1, SVG Export Plug-In . SVG Version: 6.00 Build 0)  -->
<svg version="1.1" xmlns="http://www.w3.org/2000/svg" xmlns:xlink="http://www.w3.org/1999/xlink" x="0px" y="0px"
	 viewBox="0 0 1000 262" style="enable-background:new 0 0 1000 262;" xml:space="preserve">
<style type="text/css">
	.st0{display:none;}
	.st1{display:inline;}
	.st2{fill:#FFFFFF;}
</style>
<g id="Layer_2" class="st0">
	<rect class="st1" width="1000" height="262"/>
</g>
<g id="Layer_1">
	<g>
		<g>
			<path class="st2" d="M144.12,152.49c2.05,15.86,4.11,31.72,6.16,47.58c-11.33,1.47-22.65,3.01-33.96,4.62
				c-6.64-46.66-13.28-93.32-19.92-139.99c19.7-2.8,39.42-5.4,59.16-7.79c11.35-1.37,21.63-0.55,30.79,2.45
				c9.16,3,16.5,7.92,22.01,14.74c5.51,6.82,8.71,14.88,9.64,24.15c1.38,13.72-2.61,25.19-11.82,34.46
				c-9.21,9.28-22.5,14.89-39.98,17.01C158.84,150.61,151.48,151.53,144.12,152.49z M140.74,126.39c7.63-0.99,15.25-1.94,22.88-2.87
				c6.77-0.82,11.73-3.06,14.91-6.75c3.18-3.69,4.44-8.52,3.76-14.51c-0.74-6.56-3.18-11.6-7.33-15.09
				c-4.15-3.49-9.44-4.9-15.84-4.19c-7.88,0.95-15.75,1.94-23.62,2.96C137.25,99.42,139,112.9,140.74,126.39z"/>
			<path class="st2" d="M233.48,136.83c-1.01-10.44,0.18-19.94,3.61-28.49c3.43-8.55,8.92-15.38,16.46-20.46
				c7.54-5.08,16.69-8.06,27.4-8.89c16.37-1.27,29.63,2.72,39.64,11.85c10.01,9.13,15.44,22.1,16.42,38.84
				c0.02,0.39,0.05,0.78,0.07,1.16c0.96,16.35-2.91,29.59-11.44,39.77c-8.54,10.18-20.52,15.8-36.06,17.01
				c-14.96,1.16-27.32-2.26-37.24-10.36c-9.91-8.1-16.02-19.71-18.22-34.92C233.9,140.49,233.69,138.66,233.48,136.83z
				 M267.03,135.84c0.82,9.68,2.96,16.64,6.41,20.9c3.45,4.26,8.17,6.15,14.18,5.68c11.75-0.91,17.13-10.26,16.14-28.17
				c-0.08-1.1-0.16-2.2-0.23-3.29c-1.32-18.79-8.2-27.77-20.63-26.8c-11.29,0.88-16.72,9.51-16.27,25.77
				C266.76,131.9,266.89,133.87,267.03,135.84z"/>
			<path class="st2" d="M395.36,140.36c-3.01,3.19-6.01,6.39-9,9.59c0.41,9.96,0.82,19.92,1.23,29.89
				c-10.94,0.45-21.87,0.97-32.8,1.55c-2.65-49.68-5.31-99.37-7.96-149.05c11.53-0.62,23.07-1.16,34.6-1.64
				c1.09,26.39,2.18,52.79,3.27,79.18c1.07-1.5,2.15-3,3.22-4.51c8.06-10.56,16.21-21.09,24.46-31.58
				c13.62-0.42,27.25-0.75,40.87-0.97c-12.54,14.61-24.89,29.31-37.04,44.09c14.03,20.21,27.77,40.52,41.21,60.93
				c-12.53,0.2-25.07,0.48-37.6,0.85C411.78,165.88,403.63,153.1,395.36,140.36z"/>
			<path class="st2" d="M512.66,179.49c-16.16-0.07-29.23-4.8-39.38-14.32c-10.14-9.51-15.41-21.93-15.64-37.34
				c-0.01-0.91-0.03-1.81-0.04-2.72c-0.16-10.74,1.73-20.26,5.74-28.54c4.01-8.27,9.96-14.71,17.88-19.26
				c7.91-4.55,17.37-6.83,28.31-6.8c15.39,0.05,27.51,4.8,36.23,14.1c8.72,9.31,12.84,22.18,12.5,38.55
				c-0.09,4.24-0.18,8.48-0.27,12.72c-22.09-0.46-44.19-0.66-66.29-0.6c1.21,5.89,3.81,10.51,7.82,13.87
				c4,3.37,9.17,5.06,15.53,5.09c10.48,0.06,18.7-3.46,24.72-10.63c4.98,5.96,9.93,11.94,14.84,17.93
				c-4.23,5.55-10.12,9.93-17.68,13.16C529.36,177.94,521.29,179.53,512.66,179.49z M509.23,95.76c-9.91-0.03-15.79,6.34-17.6,19.03
				c11.3-0.03,22.59,0,33.89,0.1c0.01-0.84,0.02-1.68,0.02-2.52c0.18-5.24-1.15-9.32-4-12.22
				C518.69,97.25,514.58,95.78,509.23,95.76z"/>
			<path class="st2" d="M567.44,125.02c0.4-16.63,4.41-29.66,12.13-39.03c7.72-9.37,18.35-13.83,31.78-13.31
				c9.78,0.39,17.86,4.45,24.16,12.14c0.85-17.72,1.71-35.44,2.56-53.16c11.57,0.56,23.13,1.18,34.7,1.88
				c-2.99,49.63-5.98,99.26-8.97,148.9c-9.83-0.59-19.66-1.13-29.49-1.62c-0.37-3.78-0.74-7.56-1.11-11.33
				c-7.21,8.46-15.95,12.47-26.33,12.06c-12.52-0.49-22.27-5.59-29.37-15.37C570.41,156.4,567.02,142.69,567.44,125.02z
				 M600.83,128.07c-0.67,18.64,4.5,28.14,15.48,28.6c7.33,0.31,12.7-2.48,16.15-8.41c0.64-13.32,1.28-26.64,1.92-39.96
				c-2.77-6.35-7.91-9.71-15.4-10.03c-10.44-0.44-16.39,7.52-17.84,23.79C601.04,124.06,600.94,126.07,600.83,128.07z"/>
			<path class="st2" d="M733.15,189.46c-16.11-1.38-28.77-7.16-38.12-17.47c-9.34-10.3-13.59-23.11-12.58-38.49
				c0.06-0.9,0.12-1.81,0.18-2.71c0.71-10.72,3.37-20.06,8.03-27.98c4.66-7.92,11.13-13.85,19.39-17.75
				c8.26-3.89,17.88-5.4,28.79-4.48c15.35,1.3,27.06,7.01,35,16.99c7.95,9.98,11.02,23.15,9.35,39.44
				c-0.43,4.22-0.86,8.44-1.3,12.66c-22.01-2.26-44.04-4.25-66.09-5.97c0.73,5.97,2.95,10.79,6.67,14.46
				c3.72,3.68,8.74,5.78,15.08,6.33c10.45,0.91,18.93-1.94,25.53-8.59c4.48,6.35,8.94,12.71,13.35,19.08
				c-4.67,5.19-10.91,9.07-18.71,11.68C749.94,189.28,741.76,190.2,733.15,189.46z M736.52,105.73c-9.88-0.83-16.26,5.04-19.1,17.54
				c11.27,0.88,22.54,1.83,33.8,2.85c0.08-0.84,0.15-1.68,0.23-2.51c0.6-5.21-0.39-9.38-3-12.51
				C745.84,107.98,741.86,106.19,736.52,105.73z"/>
			<path class="st2" d="M842.57,122.42c6.39-8.93,12.84-17.84,19.33-26.73c11.73,1.51,23.46,3.1,35.17,4.76
				c-11.94,15.54-23.7,31.15-35.31,46.83c7.5,19.11,14.8,38.24,21.91,57.4c-11.35-1.61-22.7-3.16-34.06-4.63
				c-4.16-10.98-8.38-21.96-12.66-32.92c-6.72,9.61-13.38,19.24-19.98,28.9c-11.44-1.34-22.88-2.61-34.33-3.8
				c11.57-16.86,23.32-33.64,35.27-50.35c-7.41-18.03-14.99-36.02-22.75-53.99c11.89,1.25,23.78,2.57,35.65,3.97
				C834.79,102.03,838.7,112.22,842.57,122.42z"/>
		</g>
	</g>
</g>
</svg>
